<svg xmlns="http://www.w3.org/2000/svg" xmlns:xlink="http://www.w3.org/1999/xlink" id="Layer_1" x="0px" y="0px" viewBox="0 0 934 198.6" style="enable-background:new 0 0 934 198.6;" xml:space="preserve"><style type="text/css">	.st0{fill:#00A261;}	.st1{fill:#0AB25A;}	.st2{fill:#231F20;}	.st3{fill-rule:evenodd;clip-rule:evenodd;fill:#231F20;}	.st4{fill-rule:evenodd;clip-rule:evenodd;fill:#0AB25A;}	.st5{fill:#005BBB;}	.st6{fill:#FFD500;}</style><path class="st0" d="M168.7,142.7L87.9,36.6l15.4,80.6L168.7,142.7z"></path><path class="st1" d="M87.9,36.6L7,143l64-17.2L87.9,36.6z"></path><path class="st2" d="M103.2,117.2L71,125.8l-12.7,67.3l110.4-50.4L103.2,117.2z"></path><path class="st0" d="M7,143l51.3,50.1L71,125.8L7,143z"></path><path class="st2" d="M197.4,63.6v47.3h-8V63.6h-14.6v-7.4H212v7.4H197.4z"></path><path class="st2" d="M245,110.9l-3.8-11h-21.6l-3.8,11H207L227,56.1h6.7l20.1,54.8H245z M230.6,68.5l-8.5,24.3h16.8L230.6,68.5z"></path><path class="st2" d="M257.5,110.9V56.1h8v47.3h25.6v7.4H257.5z"></path><path class="st2" d="M297.8,110.9V56.1h8v47.3h25.6v7.4H297.8z"></path><path class="st3" d="M338.5,56.1h8v54.8h-8V56.1z"></path><path class="st2" d="M386.7,110.9l-24.5-38.6v38.6h-8V56.1h7.4l24.5,38.5V56.1h8v54.8H386.7z"></path><path class="st2" d="M433.8,110.9l-24.5-38.6v38.6h-8V56.1h7.4l24.5,38.5V56.1h8v54.8H433.8z"></path><path class="st2" d="M483.9,110.9l-3.8-11h-21.6l-3.8,11h-8.9L466,56.1h6.7l20.1,54.8H483.9z M469.5,68.5L461,92.8h16.8L469.5,68.5z "></path><path class="st1" d="M199,126.2v45.2h-10.4v-45.2h-13.9v-9.5h38.1v9.5L199,126.2z"></path><path class="st1" d="M218.8,171.4v-54.8h35v9.5h-24.6V139h21v9.5h-21v13.3h24.6v9.5H218.8z"></path><path class="st1" d="M288.7,171.4v-22.9h-18v22.9h-10.4v-54.8h10.4V139h18v-22.4H299v54.8H288.7z"></path><path class="st1" d="M337.9,171.4l-21-33.6v33.6h-10.4v-54.8h9.2l21,33.6v-33.6h10.4v54.8H337.9z"></path><path class="st4" d="M355,116.6h10.4v54.8H355V116.6z"></path><g>	<path class="st1" d="M402.9,171.4l-13.7-24.9l-6.9,8.5v16.4H372v-54.8h10.4v23.9l18.7-23.9h12.6L396,138.4l18.9,33H402.9z"></path>	<path class="st1" d="M451,171.4l-3.2-9.7h-19.5l-3.3,9.7h-11.2l19.9-54.8h8.4l20,54.8H451z M438.3,132.8l-6.9,19.9H445L438.3,132.8  z"></path>	<path class="st2" d="M496.8,170.9l-14.9-27l-8.9,11.1v15.9h-8v-54.8h8v27.5l21.7-27.5h9.8l-17.2,21.5l19,33.3H496.8z"></path>	<path class="st2" d="M544.4,143.6c0,5.2-0.1,9.5-0.5,12.8c-0.5,3.5-2,6.5-4.5,9.2c-3.7,3.8-8.3,5.8-14,5.8c-5.6,0-10.3-2-13.9-5.8  c-2.5-2.6-4-5.7-4.5-9.2c-0.5-3.4-0.7-7.7-0.7-12.8c-0.1-5.2,0.2-9.6,0.7-13c0.5-3.4,2-6.4,4.5-9c3.6-3.8,8.2-5.8,13.9-5.8  c5.7,0.1,10.4,2,14,5.8c2.5,2.6,4,5.6,4.5,9C544.3,134,544.4,138.3,544.4,143.6 M539.2,105.6c-1.6,1.6-3.1,2.8-4.3,3.4  c-1.3,0.6-2.5,0.9-3.7,0.9c-1,0-2-0.2-2.9-0.5c-0.9-0.3-1.9-0.7-2.9-1.3c-1.4-0.9-2.8-1.4-4.3-1.5c-0.6,0-1.2,0.1-1.8,0.3  c-0.7,0.2-1.5,0.9-2.6,2l-3.7-3.6c1.7-1.7,3.2-2.9,4.5-3.4c1.2-0.5,2.4-0.8,3.5-0.8c1.1,0,2.1,0.2,3,0.5c0.8,0.3,1.8,0.7,2.7,1.3  c1.4,1,2.9,1.5,4.2,1.5c0.6,0.1,1.3-0.1,2-0.5c0.7-0.3,1.6-0.9,2.5-1.9L539.2,105.6z M536.4,143.6c0-5.4-0.2-9.3-0.6-11.6  c-0.2-1.2-0.5-2.3-0.9-3.2c-0.5-0.8-1-1.6-1.7-2.3c-2-2.2-4.6-3.3-8-3.4c-3.3,0-5.9,1.2-7.9,3.4c-0.6,0.7-1.1,1.4-1.5,2.3  c-0.4,0.9-0.8,1.9-1,3.2c-0.5,2.4-0.7,6.2-0.7,11.6c-0.1,5.3,0.2,9.2,0.7,11.5c0.4,2.4,1.2,4.2,2.4,5.6c2,2.2,4.6,3.3,7.9,3.4  c3.3-0.1,6-1.2,8-3.4c0.7-0.8,1.3-1.6,1.7-2.5c0.4-0.8,0.7-1.9,0.9-3.1C536.2,152.7,536.4,148.9,536.4,143.6"></path>	<path class="st2" d="M579,170.9l-11.2-23.1h-10v23.1h-8v-54.8h20.6c5.1,0.1,9.1,1.5,12,4.5c2.9,2.9,4.3,6.8,4.4,11.5  c0,3.9-1,7.1-3,9.5c-2,2.4-4.5,4.1-7.6,5l12.2,24.2H579z M578.8,132.3c0-2.7-0.9-4.9-2.5-6.4c-1.6-1.5-3.8-2.2-6.6-2.2h-11.9v17.2  h11.9c2.7,0,4.9-0.8,6.6-2.3C577.9,137,578.7,134.9,578.8,132.3"></path>	<path class="st2" d="M631.1,149.6c0.1,6.8-1.5,11.9-4.7,15.5c-3.8,4.2-8.6,6.3-14.5,6.3c-5.6,0-10.2-2-13.9-5.8  c-2.5-2.6-4-5.7-4.5-9.2c-0.5-3.4-0.7-7.7-0.7-12.9c-0.1-5.2,0.2-9.6,0.7-13c0.5-3.4,2-6.4,4.5-9c3.6-3.8,8.2-5.8,13.9-5.8  c3.6,0,6.6,0.6,9,1.7c2.4,1.2,4.7,3.1,7,5.5l-5.5,5.6c-1.5-1.8-3.1-3.2-4.7-4.1c-1.6-0.9-3.5-1.3-5.9-1.3c-3.3,0.1-5.9,1.2-7.9,3.4  c-0.6,0.7-1.1,1.4-1.5,2.2c-0.4,0.9-0.7,1.9-0.9,3.2c-0.5,2.4-0.7,6.2-0.7,11.6c-0.1,5.3,0.2,9.1,0.7,11.5c0.4,2.4,1.2,4.2,2.4,5.6  c2,2.2,4.6,3.3,7.9,3.3c3.5,0,6.4-1.3,8.5-3.9c1.8-2.3,2.7-5.2,2.6-8.7v-3h-11.2v-7.1h19.2V149.6z"></path>	<path class="st2" d="M669.1,170.9l-14.9-27l-8.9,11.1v15.9h-8v-54.8h8v27.5l21.7-27.5h9.8l-17.2,21.5l19,33.3H669.1z"></path>	<path class="st2" d="M716.2,143.6c0,5.2-0.1,9.5-0.5,12.8c-0.5,3.5-2,6.5-4.5,9.2c-3.7,3.8-8.3,5.8-14,5.8c-5.7,0-10.3-2-13.9-5.8  c-2.5-2.6-4-5.7-4.5-9.2c-0.5-3.4-0.7-7.7-0.7-12.8c0-5.2,0.2-9.6,0.7-13c0.5-3.4,2-6.4,4.5-9c3.6-3.8,8.2-5.8,13.9-5.8  c5.7,0.1,10.4,2,14,5.8c2.5,2.6,4,5.6,4.5,9C716.1,134,716.3,138.3,716.2,143.6 M708.2,143.6c0-5.4-0.2-9.3-0.5-11.6  c-0.2-1.2-0.5-2.3-0.9-3.2c-0.5-0.8-1-1.6-1.7-2.3c-2-2.2-4.6-3.3-8-3.4c-3.3,0-5.9,1.2-7.9,3.4c-0.6,0.7-1.1,1.4-1.5,2.3  c-0.4,0.9-0.8,1.9-0.9,3.2c-0.5,2.4-0.8,6.2-0.7,11.6c-0.1,5.3,0.2,9.2,0.7,11.5c0.4,2.4,1.2,4.2,2.4,5.6c2,2.2,4.6,3.3,7.9,3.4  c3.3-0.1,6-1.2,8-3.4c0.7-0.8,1.2-1.6,1.7-2.5c0.4-0.8,0.7-1.9,0.9-3.1C708.1,152.7,708.2,148.9,708.2,143.6"></path>	<path class="st2" d="M760.6,143.6c0,5.2-0.1,9.5-0.5,12.8c-0.5,3.5-2,6.5-4.5,9.2c-3.7,3.8-8.3,5.8-14,5.8c-5.7,0-10.3-2-13.9-5.8  c-2.5-2.6-4-5.7-4.5-9.2c-0.5-3.4-0.7-7.7-0.7-12.8c-0.1-5.2,0.2-9.6,0.7-13c0.5-3.4,2-6.4,4.5-9c3.6-3.8,8.2-5.8,13.9-5.8  c5.7,0.1,10.4,2,14,5.8c2.5,2.6,4,5.6,4.5,9C760.5,134,760.7,138.3,760.6,143.6 M752.6,143.6c0-5.4-0.2-9.3-0.5-11.6  c-0.2-1.2-0.5-2.3-0.9-3.2c-0.5-0.8-1-1.6-1.7-2.3c-2-2.2-4.7-3.3-8-3.4c-3.3,0-5.9,1.2-7.9,3.4c-0.6,0.7-1.1,1.4-1.5,2.3  c-0.4,0.9-0.8,1.9-1,3.2c-0.5,2.4-0.7,6.2-0.7,11.6c-0.1,5.3,0.2,9.2,0.7,11.5c0.4,2.4,1.2,4.2,2.4,5.6c2,2.2,4.6,3.3,7.9,3.4  c3.3-0.1,6-1.2,8-3.4c0.7-0.8,1.2-1.6,1.7-2.5c0.4-0.8,0.7-1.9,0.9-3.1C752.5,152.7,752.6,148.9,752.6,143.6"></path>	<path class="st2" d="M766.8,170.9v-54.8h8v47.3h25.6v7.4H766.8z"></path></g><path class="st5" d="M850.8,21.7c-1.1,3.2-1,7.2-0.2,11.6c1.3-1.3,2.6-2.4,4-3.5c4-3.1,8.8-4.9,13.9-5.2c5.1-0.2,10.2,1.2,14.4,4 c1.9,1.2,3.7,2.7,5.4,4.3c0.9-4.5,1-8.6-0.2-11.9c-0.5-1.2-1.2-2.4-2-3.5c-0.3-0.3-0.5-0.5-0.8-0.8c-0.8-0.7-1.7-1.2-2.5-1.8 c-0.5-0.3-1-0.6-1.6-0.9c-3.9-2.2-8.3-3.2-12.7-3.1c-0.4,0-0.9,0.1-1.3,0.1l-0.5,0.1c-0.4,0-0.8,0.1-1.2,0.2l-0.5,0.1 c-0.4,0.1-0.8,0.2-1.2,0.3l-0.4,0.1c-0.4,0.1-0.9,0.2-1.3,0.4l-0.3,0.1c-0.5,0.2-0.9,0.3-1.4,0.5l-0.2,0.1c-0.5,0.2-0.9,0.4-1.4,0.6 l-0.1,0c-0.5,0.3-1,0.5-1.5,0.8l-0.2,0.1c-0.4,0.3-0.9,0.5-1.3,0.8l-0.3,0.2c-1.2,0.9-2.3,2-3.2,3.2 C851.7,19.7,851.2,20.7,850.8,21.7C851.1,21.4,851.1,21.4,850.8,21.7z"></path><path class="st6" d="M883,28.6c-4.3-2.8-9.3-4.2-14.4-4c-5,0.3-9.9,2.1-13.9,5.2c-1.4,1.1-2.8,2.2-4,3.5c0.7,3.5,1.8,6.9,3.1,10.3 c0.7-0.5,1.3-1,2-1.4c3.7-2.6,8.1-4.1,12.6-4.5c5.6-0.3,11.5,1.3,17,5.6c1.3-3.4,2.4-6.8,3.1-10.3C886.7,31.3,884.9,29.9,883,28.6z"></path><path class="st5" d="M908.2,162.7c4.9-5.4,9.8-10.5,10.8-10.6c0,0-13.4-21.3-34.5-54.5c-2.2,4.1-4.8,8.8-7.6,13.9 C888.8,131,901.1,151.2,908.2,162.7z"></path><path class="st5" d="M847.1,60c0.2,0.5,0.6,1.3,1,2.1l0.1,0.3c2.3,4.6,7.3,13.2,13.5,23.7c1.1-1.8,2.3-3.7,3.5-5.6 c1.3-2.1,2.7-4.4,4.2-6.8c-5.5-9-11.8-20-15.7-30.2c-1.3-3.3-2.3-6.8-3.1-10.3c-0.9-4.4-0.9-8.3,0.2-11.6c0.3-0.3,0.3-0.3,0,0 c0.4-1,0.8-2,1.5-3c0.1-0.2,0.3-0.4,0.4-0.6l0.1-0.2c-1.5,1.8-2.8,3.8-3.9,6c-2.5,4.7-4.7,9.5-6.4,14.5C842.1,44,843.7,51,847.1,60z "></path><path class="st6" d="M908.2,162.7c-7.1-11.5-19.5-31.7-31.3-51.2c-2.3,4.2-4.8,8.6-7.3,13.1c13.7,24.1,28.6,50,28.6,50 C898.5,173.9,903.3,168.2,908.2,162.7z"></path><path class="st6" d="M861.8,86.1c-6.3-10.5-11.2-19.2-13.5-23.7l-0.1-0.3c-0.4-0.9-0.8-1.6-1-2.1c-3.4-9-5-16-4.6-21.5 c-3.2,8.8-5.4,18-5.4,22.8c0,7.4,6.3,15.2,11.5,25.5c1.2,2.4,3.3,6.3,5.9,11C856.9,94,859.3,90.1,861.8,86.1z"></path><path class="st5" d="M891,61.7c0.1-0.1,0.1-0.3,0.2-0.4c0.4-0.9,0.8-1.6,1-2.1c3.4-9,4.9-16,4.5-21.6c-1.8-5-3.9-9.9-6.5-14.5 c-1.1-2.3-2.5-4.3-4.3-6.1l0,0c0.1,0.1,0.2,0.3,0.3,0.4c0.8,1.1,1.5,2.2,2,3.5c1.1,3.3,1.1,7.4,0.2,11.9c-0.7,3.5-1.8,7-3.1,10.3 c-4,10.4-10.3,21.5-15.8,30.6c-1.5,2.5-2.9,4.8-4.2,6.8c-1.2,1.9-2.3,3.7-3.5,5.6c-2.5,4-4.9,7.8-7.2,11.5 c-9.9,15.8-18.1,28.8-23.9,38.2c-3.8,6.2-7.2,11.7-9.9,15.9c1,0.1,6,5.2,10.9,10.5C846.1,138.4,883.2,77.2,891,61.7z"></path><path class="st6" d="M877,111.5c2.8-5.1,5.4-9.8,7.6-13.9c2.7-5,4.9-9.1,6.2-11.7c5.1-10.4,11.4-18.1,11.4-25.5 c0-4.8-2.3-14-5.5-22.8c0.5,5.6-1.1,12.5-4.5,21.6c-0.2,0.5-0.5,1.2-1,2.1c-0.1,0.1-0.1,0.3-0.2,0.4c-7.8,15.5-44.9,76.6-59.4,100.6 c5,5.4,9.8,11.1,10.1,11.8c0,0,14.5-25.5,28-49.5C872.1,120.1,874.6,115.7,877,111.5z"></path></svg>